<?xml version="1.0" encoding="UTF-8" standalone="no"?>
<!-- Created with Inkscape (http://www.inkscape.org/) -->

<svg
   xmlns:dc="http://purl.org/dc/elements/1.1/"
   xmlns:cc="http://creativecommons.org/ns#"
   xmlns:rdf="http://www.w3.org/1999/02/22-rdf-syntax-ns#"
   xmlns:svg="http://www.w3.org/2000/svg"
   xmlns="http://www.w3.org/2000/svg"
   xmlns:sodipodi="http://sodipodi.sourceforge.net/DTD/sodipodi-0.dtd"
   xmlns:inkscape="http://www.inkscape.org/namespaces/inkscape"
   id="svg4190"
   version="1.1"
   inkscape:version="0.91 r13725"
   width="300"
   height="300"
   viewBox="0 0 300 299.99999"
   sodipodi:docname="logo.svg">
  <metadata
     id="metadata4196">
    <rdf:RDF>
      <cc:Work
         rdf:about="">
        <dc:format>image/svg+xml</dc:format>
        <dc:type
           rdf:resource="http://purl.org/dc/dcmitype/StillImage" />
        <dc:title />
      </cc:Work>
    </rdf:RDF>
  </metadata>
  <defs
     id="defs4194" />
  <sodipodi:namedview
     pagecolor="#ffffff"
     bordercolor="#666666"
     borderopacity="1"
     objecttolerance="10"
     gridtolerance="10"
     guidetolerance="10"
     inkscape:pageopacity="0"
     inkscape:pageshadow="2"
     inkscape:window-width="1600"
     inkscape:window-height="884"
     id="namedview4192"
     showgrid="false"
     width="800px"
     inkscape:zoom="1"
     inkscape:cx="312.93765"
     inkscape:cy="150.01116"
     inkscape:window-x="0"
     inkscape:window-y="16"
     inkscape:window-maximized="0"
     inkscape:current-layer="svg4190" />
  <rect
     style="color:#000000;clip-rule:nonzero;display:inline;overflow:visible;visibility:visible;opacity:1;isolation:auto;mix-blend-mode:normal;color-interpolation:sRGB;color-interpolation-filters:linearRGB;solid-color:#000000;solid-opacity:1;fill:#333333;fill-opacity:1;fill-rule:nonzero;stroke:none;stroke-width:1;stroke-linecap:butt;stroke-linejoin:miter;stroke-miterlimit:4;stroke-dasharray:none;stroke-dashoffset:0;stroke-opacity:1;color-rendering:auto;image-rendering:auto;shape-rendering:auto;text-rendering:auto;enable-background:accumulate"
     id="rect4389"
     width="348.95718"
     height="320.47443"
     x="-24.478592"
     y="-10.237213" />
  <path
     style="color:#000000;clip-rule:nonzero;display:inline;overflow:visible;visibility:visible;opacity:1;isolation:auto;mix-blend-mode:normal;color-interpolation:sRGB;color-interpolation-filters:linearRGB;solid-color:#000000;solid-opacity:1;fill:#ddff55;fill-opacity:1;fill-rule:nonzero;stroke-width:1;stroke-linecap:butt;stroke-linejoin:miter;stroke-miterlimit:4;stroke-dasharray:none;stroke-dashoffset:0;stroke-opacity:1;color-rendering:auto;image-rendering:auto;shape-rendering:auto;text-rendering:auto;enable-background:accumulate"
     d="m 81.97363,77.350647 3.07422,0.7207 c 8.03229,1.88118 15.67316,4.288891 22.77344,7.085941 -1.2313,1.14543 -2.44584,2.32284 -3.64649,3.56055 -8.62585,8.89208 -13.57287,17.721992 -15.77734,28.164062 -0.89249,4.22749 -0.97474,11.81294 -0.16992,15.59961 2.91007,13.69195 12.97076,26.97966 29.80664,39.41407 -7.91147,2.41966 -21.03591,5.98776 -26.16211,7.06836 -2.38297,0.50233 -9.47522,1.81836 -9.80078,1.81836 -0.0536,0 -0.0977,-23.27146 -0.0977,-51.71485 z m 102.83899,92.956003 c 13.59446,-11.2051 24.37609,-25.66849 26.95985,-37.82514 0.80481,-3.78667 0.72257,-11.37212 -0.16992,-15.59961 -2.20447,-10.44207 -7.15148,-19.271982 -15.77734,-28.164062 -1.20065,-1.23771 -2.41519,-2.41512 -3.64649,-3.56055 7.10028,-2.79705 14.74116,-5.204761 22.77344,-7.085941 l 3.07421,-0.7207 0,51.716803 c 0,28.44339 -0.0421,51.71485 -0.0957,51.71485 -0.32556,0 -7.41976,-1.31603 -9.80273,-1.81836 -5.12609,-1.08057 -16.43666,-3.8381 -26.16211,-7.06641 -9.72545,-3.22831 -21.2512,-7.00046 -31.96681,-12.66406 -10.71561,-5.6636 -24.01307,-13.80375 -31.74414,-21.4961 -9.0801,-9.03463 -13.61433,-18.0727 -13.62304,-27.15625 -0.007,-8.04254 2.76979,-15.951152 8.16992,-23.355472 9.86352,4.31472 18.47335,9.41015 25.2168,14.986332 -0.26662,0.97877 -0.51347,1.96765 -0.72657,2.9707 -0.91017,4.28414 -0.98607,12.39085 -0.15234,16.19922 0.82442,3.76587 2.10877,7.19157 4.27539,11.40039 2.56688,4.98636 7.75906,12.23228 8.35156,11.6543 0.11005,-0.10734 -0.12811,-0.85023 -0.53125,-1.65039 -1.17405,-2.3303 -2.24265,-5.56341 -2.77929,-8.41016 -0.59542,-3.15843 -0.44233,-8.54251 0.32421,-11.34375 0.51467,-1.88084 1.83052,-4.80756 3.21875,-7.27148 1.38842,2.4641 2.70597,5.39042 3.22071,7.27148 0.76654,2.80124 0.91963,8.18532 0.32422,11.34375 -0.53665,2.84675 -1.60525,6.07986 -2.7793,8.41016 -0.40314,0.80016 -0.6413,1.54305 -0.53125,1.65039 0.5925,0.57798 5.78468,-6.66794 8.35156,-11.6543 2.16662,-4.20882 3.45097,-7.63452 4.27539,-11.40039 0.83373,-3.80837 0.75783,-11.91508 -0.15234,-16.19922 -0.2131,-1.00305 -0.43006,-2.00057 -0.72656,-2.9707 -1.58042,-5.171092 -5.99876,-15.105892 -11.98047,-21.681643 -4.15479,-4.5674 -8.58632,-8.29495 -14.12891,-11.97852 -8.71294,-5.59671 -23.80092,-11.93678 -33.79883,-14.64453 -13.98263,-3.70894 -34.20531,-6.06615 -50.75195,-5.98438 -1.10311,0.005 -2.18835,0.0214 -3.25586,0.0488 -5.74453,0.1478 -17.92313,0.94498 -19.7168,1.29102 l -0.67578,0.13086 0,76.644533 0,87.17774 18.49024,0 c 13.11282,-0.002 61.39356,-7.90491 79.45898,-13.35547 8.45168,-2.82782 16.65216,-6.07032 24.37695,-9.59766 7.72527,3.52763 15.92665,6.76965 24.37891,9.59766 18.06542,5.45056 66.34616,13.35375 79.45898,13.35547 l 18.49024,0 0,-87.17774 0,-76.644533 -0.67578,-0.13086 c -1.79367,-0.34604 -13.97227,-1.14322 -19.7168,-1.29102 -17.08009,-0.43944 -39.093,1.97935 -54.00781,5.93555 -11.97111,3.17538 -23.11741,7.88437 -32.09375,13.54102 l -0.70508,0.45703 c 4.8182,2.63462 16.16143,11.6554 22.07227,19.320311 5.03649,6.5311 8.1753,15.313422 8.16796,23.355472 -0.009,9.08355 -4.54294,18.12163 -13.62304,27.15625 -5.22517,5.19901 -15.22457,11.56651 -23.05033,16.28202 10.36521,8.52827 19.0976,13.33859 26.11783,16.28729 z"
     id="path4248"
     inkscape:connector-curvature="0"
     sodipodi:nodetypes="cccssscsssccssscccssszzscccssscssscssscsssssccsscccccccccccccssccscscc" />
  <text
     xml:space="preserve"
     style="font-style:normal;font-weight:normal;font-size:40px;line-height:125%;font-family:sans-serif;letter-spacing:0px;word-spacing:0px;fill:#b3b3b3;fill-opacity:1;stroke:none;stroke-width:1px;stroke-linecap:butt;stroke-linejoin:miter;stroke-opacity:1;"
     x="64.204872"
     y="251.56813"
     id="text4391"
     sodipodi:linespacing="125%"><tspan
       sodipodi:role="line"
       x="64.204872"
       y="251.56813"
       style="font-style:normal;font-variant:normal;font-weight:300;font-stretch:normal;font-family:'Hero Light';-inkscape-font-specification:'Hero Light, Light';fill:#b3b3b3;"
       id="tspan4397">ddserver</tspan></text>
</svg>
